<mxfile host="app.diagrams.net" modified="2021-01-29T13:24:39.501Z" agent="5.0 (Macintosh; Intel Mac OS X 10_14_6) AppleWebKit/537.36 (KHTML, like Gecko) Chrome/87.0.4280.141 Safari/537.36" etag="UJtr_tWuapCJce4AiPG9" version="14.1.9" type="github">
  <diagram id="WuaN6s16ToiUipmAEwiQ" name="Page-1">
    <mxGraphModel dx="1426" dy="686" grid="1" gridSize="10" guides="1" tooltips="1" connect="1" arrows="1" fold="1" page="1" pageScale="1" pageWidth="850" pageHeight="1100" math="0" shadow="0">
      <root>
        <mxCell id="0" />
        <mxCell id="1" parent="0" />
        <mxCell id="JM4FT_HUwaRpcfGYyFz--1" value="" style="rounded=1;whiteSpace=wrap;html=1;" vertex="1" parent="1">
          <mxGeometry x="50" y="160" width="310" height="30" as="geometry" />
        </mxCell>
        <mxCell id="JM4FT_HUwaRpcfGYyFz--2" value="" style="rounded=1;whiteSpace=wrap;html=1;" vertex="1" parent="1">
          <mxGeometry x="460" y="160" width="310" height="30" as="geometry" />
        </mxCell>
        <mxCell id="JM4FT_HUwaRpcfGYyFz--6" value="&lt;h1&gt;Uncontrolled&lt;/h1&gt;&lt;p&gt;&amp;lt;input type=&quot;text&quot; /&amp;gt;&lt;/p&gt;" style="text;html=1;strokeColor=none;fillColor=none;spacing=5;spacingTop=-20;whiteSpace=wrap;overflow=hidden;rounded=0;" vertex="1" parent="1">
          <mxGeometry x="50" y="80" width="190" height="80" as="geometry" />
        </mxCell>
        <mxCell id="JM4FT_HUwaRpcfGYyFz--7" value="&lt;h1&gt;Controlled&lt;/h1&gt;&lt;p&gt;&amp;lt;input type=&quot;text&quot; value=&quot;Strawberry&quot; /&amp;gt;&lt;/p&gt;" style="text;html=1;strokeColor=none;fillColor=none;spacing=5;spacingTop=-20;whiteSpace=wrap;overflow=hidden;rounded=0;" vertex="1" parent="1">
          <mxGeometry x="460" y="80" width="240" height="80" as="geometry" />
        </mxCell>
        <mxCell id="JM4FT_HUwaRpcfGYyFz--8" value="Strawberry&lt;span style=&quot;color: rgba(0 , 0 , 0 , 0) ; font-family: monospace ; font-size: 0px&quot;&gt;%3CmxGraphModel%3E%3Croot%3E%3CmxCell%20id%3D%220%22%2F%3E%3CmxCell%20id%3D%221%22%20parent%3D%220%22%2F%3E%3CmxCell%20id%3D%222%22%20value%3D%22%26lt%3Bh1%26gt%3BUncontrolled%26lt%3B%2Fh1%26gt%3B%26lt%3Bp%26gt%3B%26amp%3Blt%3Binput%20type%3D%26quot%3Btext%26quot%3B%20%2F%26amp%3Bgt%3B%26lt%3B%2Fp%26gt%3B%22%20style%3D%22text%3Bhtml%3D1%3BstrokeColor%3Dnone%3BfillColor%3Dnone%3Bspacing%3D5%3BspacingTop%3D-20%3BwhiteSpace%3Dwrap%3Boverflow%3Dhidden%3Brounded%3D0%3B%22%20vertex%3D%221%22%20parent%3D%221%22%3E%3CmxGeometry%20x%3D%2250%22%20y%3D%2250%22%20width%3D%22190%22%20height%3D%2280%22%20as%3D%22geometry%22%2F%3E%3C%2FmxCell%3E%3C%2Froot%3E%3C%2FmxGraphModel%3E&lt;/span&gt;" style="text;html=1;strokeColor=none;fillColor=none;align=left;verticalAlign=middle;whiteSpace=wrap;rounded=0;" vertex="1" parent="1">
          <mxGeometry x="50" y="165" width="160" height="20" as="geometry" />
        </mxCell>
        <mxCell id="JM4FT_HUwaRpcfGYyFz--9" value="Strawberry&lt;span style=&quot;color: rgba(0 , 0 , 0 , 0) ; font-family: monospace ; font-size: 0px&quot;&gt;%3CmxGraphModel%3E%3Croot%3E%3CmxCell%20id%3D%220%22%2F%3E%3CmxCell%20id%3D%221%22%20parent%3D%220%22%2F%3E%3CmxCell%20id%3D%222%22%20value%3D%22%26lt%3Bh1%26gt%3BUncontrolled%26lt%3B%2Fh1%26gt%3B%26lt%3Bp%26gt%3B%26amp%3Blt%3Binput%20type%3D%26quot%3Btext%26quot%3B%20%2F%26amp%3Bgt%3B%26lt%3B%2Fp%26gt%3B%22%20style%3D%22text%3Bhtml%3D1%3BstrokeColor%3Dnone%3BfillColor%3Dnone%3Bspacing%3D5%3BspacingTop%3D-20%3BwhiteSpace%3Dwrap%3Boverflow%3Dhidden%3Brounded%3D0%3B%22%20vertex%3D%221%22%20parent%3D%221%22%3E%3CmxGeometry%20x%3D%2250%22%20y%3D%2250%22%20width%3D%22190%22%20height%3D%2280%22%20as%3D%22geometry%22%2F%3E%3C%2FmxCell%3E%3C%2Froot%3E%3C%2FmxGraphModel%3E&lt;/span&gt;" style="text;html=1;strokeColor=none;fillColor=none;align=left;verticalAlign=middle;whiteSpace=wrap;rounded=0;" vertex="1" parent="1">
          <mxGeometry x="460" y="165" width="160" height="20" as="geometry" />
        </mxCell>
      </root>
    </mxGraphModel>
  </diagram>
</mxfile>
